<?xml version="1.0" encoding="UTF-8" standalone="no"?>
<!-- Created with Inkscape (http://www.inkscape.org/) -->

<svg
   width="14.715154mm"
   height="14.715155mm"
   viewBox="0 0 14.715154 14.715155"
   version="1.1"
   id="svg1"
   xmlns="http://www.w3.org/2000/svg"
   xmlns:svg="http://www.w3.org/2000/svg">
  <defs
     id="defs1" />
  <g
     id="layer1"
     transform="translate(-70.972765,-43.513465)">
    <g
       id="g4"
       transform="rotate(-45,99.311832,60.128462)">
      <g
         id="g5"
         transform="translate(-7.7375184,-21.153222)">
        <path
           id="path1"
           style="fill:#000000;stroke-width:0.0778035"
           d="m 98.758927,51.565376 a 5,5 0 0 0 -4.999695,5.000211 5,5 0 0 0 4.999695,5.000212 5,5 0 0 0 5.000203,-5.000212 5,5 0 0 0 -5.000203,-5.000211 z m 0,1.500166 a 3.5,3.5 0 0 1 3.500043,3.500045 3.5,3.5 0 0 1 -3.500043,3.500045 3.5,3.5 0 0 1 -3.500045,-3.500045 3.5,3.5 0 0 1 3.500045,-3.500045 z" />
        <path
           style="fill:#000000;stroke-width:0.264583"
           id="rect4"
           width="2.9679999"
           height="9.2129126"
           x="86.934097"
           y="60.925156"
           d="m 87.934097,60.925156 h 0.968 c 0.554,0 1,0.446 1,1 v 7.212912 c 0,0.554 -0.446,1 -1,1 h -0.968 c -0.554,0 -1,-0.446 -1,-1 v -7.212912 c 0,-0.554 0.446,-1 1,-1 z"
           rx="1"
           transform="matrix(0.62963544,0,0,0.87941113,43.088013,8.1166523)" />
      </g>
    </g>
  </g>
</svg>
